<svg width="256mm" height="256mm" xmlns="http://www.w3.org/2000/svg"><symbol id="a" viewBox="0 0 256 256" fill="currentColor" stroke="currentColor"><path d="M98.906 230.18v-11.695l-6.85-2.827c-12.42-5.127-21.013-10.969-31.379-21.335-15.085-15.085-23.114-30.352-26.662-50.7-2.294-13.156-2.294-19.09 0-32.246 3.548-20.348 11.577-35.615 26.662-50.7C71.043 50.31 79.636 44.469 92.056 39.342l6.85-2.827v-23.39h19.062v19.658h19.063V13.125h19.062v23.39l6.851 2.827c12.42 5.127 21.013 10.969 31.38 21.335 15.084 15.085 23.113 30.352 26.661 50.7 2.295 13.157 2.294 19.09 0 32.254-5.643 32.355-27.43 59.392-58.04 72.027l-6.85 2.827v23.39h-19.063v-19.658H117.97v19.658H98.906zm38.125-102.68V60.781H117.97V194.22h19.062zm-38.125.011v-60.75l-5.659 3.486C79.992 78.413 69.836 90.81 64.4 105.459c-3.666 9.877-4.591 27.178-1.994 37.283 4.226 16.447 13.907 30.412 27.565 39.766 4.587 3.141 8.474 5.721 8.637 5.733s.298-27.317.298-60.73m73.5 49.475c6.17-5.287 14.62-17.937 18.334-27.445 2.398-6.14 4.26-9.249 4.26-22.041s-1.862-15.9-4.26-22.041c-5.854-14.986-15.832-27.108-28.987-35.212l-5.66-3.487v121.48l5.66-3.487c3.112-1.917 7.907-5.412 10.654-7.767"/></symbol><use href="#a"/></svg>